<svg viewBox="0 0 118 14" fill="none" xmlns="http://www.w3.org/2000/svg"><path d="M108.937 1.18417V12.6969H116.157V11.4053H110.269V7.56528H115.318V6.27409H110.269V2.475H116.157V1.18417H108.937Z" fill="black"></path><path d="M102.474 6.31532C101.06 5.96985 99.7444 5.67378 99.7444 4.19382C99.7444 3.07555 100.632 2.35179 101.8 2.35179C102.836 2.35179 103.79 2.8617 104.234 3.6839L105.467 3.00955C104.876 1.79247 103.56 1.00308 101.932 1.00308C99.7935 1.00308 98.3957 2.26957 98.3957 4.30885C98.3957 6.62761 100.221 7.08812 101.849 7.49922C103.264 7.84469 104.563 8.14076 104.563 9.6045C104.563 10.8872 103.494 11.5453 102.178 11.5453C100.715 11.5453 99.2345 10.7228 99.2345 9.16059C99.2345 9.06177 99.2345 8.7823 99.2673 8.53564H97.8692C97.8364 8.76571 97.8364 9.06177 97.8364 9.20999C97.8364 11.5944 99.9745 12.8775 102.129 12.8775C104.135 12.8775 105.928 11.792 105.928 9.47288C105.928 7.13753 104.135 6.70983 102.474 6.31532Z" fill="black"></path><path d="M93.4097 8.43683C93.4097 10.4599 92.4721 11.5453 90.3838 11.5453C88.2951 11.5453 87.3575 10.4599 87.3575 8.43683V1.18411H86.0254V8.43683C86.0254 11.4793 87.7358 12.8775 90.3838 12.8775C93.0314 12.8775 94.7418 11.4793 94.7418 8.43683V1.18411H93.4097V8.43683Z" fill="black"></path><path d="M16.8227 11.72C14.2673 11.72 12.1874 9.64056 12.1874 7.08436C12.1874 4.52889 14.2673 2.44942 16.8227 2.44942C19.3789 2.44942 21.4577 4.52889 21.4577 7.08436C21.4577 9.64056 19.3789 11.72 16.8227 11.72ZM16.8227 1.01443C13.4705 1.01443 10.7524 3.73213 10.7524 7.08436C10.7524 10.437 13.4705 13.155 16.8227 13.155C20.1757 13.155 22.8926 10.437 22.8926 7.08436C22.8926 3.73213 20.1757 1.01443 16.8227 1.01443Z" fill="black"></path><path d="M66.4497 6.24951H60.233V1.18393H58.9009V12.6966H60.233V7.54881H66.4497V12.6966H67.7818V1.18393H66.4497V6.24951Z" fill="black"></path><path d="M43.794 11.72C41.2386 11.72 39.1591 9.6405 39.1591 7.0843C39.1591 4.52883 41.2386 2.44936 43.794 2.44936C46.3502 2.44936 48.4293 4.52883 48.4293 7.0843C48.4293 9.6405 46.3502 11.72 43.794 11.72ZM43.794 1.01437C40.4418 1.01437 37.7241 3.73207 37.7241 7.0843C37.7241 10.4369 40.4418 13.155 43.794 13.155C47.147 13.155 49.8643 10.4369 49.8643 7.0843C49.8643 3.73207 47.147 1.01437 43.794 1.01437Z" fill="black"></path><path d="M33.3984 6.24951H27.1817V1.18393H25.8496V12.6966H27.1817V7.54881H33.3984V12.6966H34.7305V1.18393H33.3984V6.24951Z" fill="black"></path><path d="M76.8453 11.72C74.2898 11.72 72.2104 9.6405 72.2104 7.0843C72.2104 4.52883 74.2898 2.44936 76.8453 2.44936C79.4015 2.44936 81.4806 4.52883 81.4806 7.0843C81.4806 9.6405 79.4015 11.72 76.8453 11.72ZM76.8453 1.01437C73.4931 1.01437 70.7754 3.73207 70.7754 7.0843C70.7754 10.4369 73.4931 13.155 76.8453 13.155C80.1983 13.155 82.9156 10.4369 82.9156 7.0843C82.9156 3.73207 80.1983 1.01437 76.8453 1.01437Z" fill="black"></path><path d="M4.93902 6.37788C3.51989 6.03093 2.19994 5.73413 2.19994 4.249C2.19994 3.12741 3.09035 2.40144 4.26208 2.40144C5.30182 2.40144 6.25823 2.91283 6.70399 3.73761L7.94135 3.06142C7.347 1.84028 6.02779 1.04831 4.39444 1.04831C2.24898 1.04831 0.846807 2.31885 0.846807 4.36477C0.846807 6.69127 2.67851 7.15362 4.31186 7.56546C5.73062 7.91242 7.03397 8.20959 7.03397 9.67738C7.03397 10.9649 5.96105 11.6249 4.64184 11.6249C3.17294 11.6249 1.68855 10.7993 1.68855 9.23199C1.68855 9.13318 1.68855 8.85297 1.72136 8.60557H0.318459C0.285645 8.83601 0.285645 9.13318 0.285645 9.28177C0.285645 11.6735 2.43038 12.961 4.59207 12.961C6.60517 12.961 8.40333 11.8723 8.40333 9.54576C8.40333 7.20266 6.60517 6.77386 4.93902 6.37788Z" fill="black"></path></svg>
