<?xml version="1.0" encoding="UTF-8"?>
<svg id="Layer_2" data-name="Layer 2" xmlns="http://www.w3.org/2000/svg" viewBox="0 0 627.54 276.62">
  <defs>
    <style>
      .cls-1, .cls-2 {
        fill: #2e3641;
      }

      .cls-2 {
        fill-rule: evenodd;
      }
    </style>
  </defs>
  <g id="Layer_1-2" data-name="Layer 1">
    <g>
      <path class="cls-1" d="M229.81,276.13h-12.81v-21.61h4.01v17.7h8.8v3.92h0Z"/>
      <path class="cls-1" d="M334.1,271.06h-8.73l-1.97,5.06h-4.44l8.77-21.61h4.07l8.73,21.61h-4.44l-1.97-5.06h-.02ZM332.56,267.15l-2.84-7.23-2.81,7.23h5.65Z"/>
      <path class="cls-1" d="M362.94,269.64c0,3.89-2.84,6.48-7.13,6.48h-8.8v-21.61h9.05c3.67,0,6.21,2.47,6.21,6.03,0,1.82-.68,3.39-2.25,4.29,1.77.77,2.94,2.69,2.94,4.81h-.02ZM350.97,262.98h4.61c1.64,0,2.62-.87,2.62-2.34s-.95-2.19-2.69-2.19h-4.54v4.54h0ZM358.87,269.4c0-1.64-1.15-2.52-3.06-2.52h-4.84v5.34h4.57c2.07,0,3.34-1.05,3.34-2.81h-.01Z"/>
      <path class="cls-1" d="M245.1,254c-6.23,0-11.31,5.08-11.31,11.31s5.08,11.31,11.31,11.31,11.31-5.07,11.31-11.31-5.08-11.31-11.31-11.31ZM245.1,272.69c-4.07,0-7.38-3.31-7.38-7.38s3.31-7.38,7.38-7.38,7.38,3.31,7.38,7.38-3.31,7.38-7.38,7.38Z"/>
      <path class="cls-1" d="M378.96,254c-6.23,0-11.31,5.08-11.31,11.31s5.07,11.31,11.31,11.31,11.31-5.07,11.31-11.31-5.07-11.31-11.31-11.31ZM378.96,272.69c-4.07,0-7.38-3.31-7.38-7.38s3.31-7.38,7.38-7.38,7.38,3.31,7.38,7.38-3.31,7.38-7.38,7.38Z"/>
      <path class="cls-2" d="M239.14,166.11c7.86,0,14.9,2.99,14.9,12.03,0,6.48-3.55,10.09-8.48,11.65l10.79,19.94h-6.05l-10.04-18.82h-11.54v18.82h-5.05v-43.61h15.47ZM228.73,185.98h11.29c5.86,0,8.86-3.24,8.86-7.54s-3.18-7.41-8.92-7.41h-11.22v14.95h-.01Z"/>
      <path class="cls-1" d="M294.56,171.03h-22.32v14.39h19.14v4.86h-19.14v14.58h22.32v4.86h-27.38v-43.61h27.38v4.92Z"/>
      <path class="cls-1" d="M354.75,209.72h-5.05v-43.61h5.05v43.61Z"/>
      <path class="cls-2" d="M384.48,166.11c16.09,0,21.89,10.22,21.89,21.43s-6.3,22.18-22.7,22.18h-12.72v-43.61h13.53ZM376,204.86h8.17c12.66,0,17.02-8.22,17.02-17.26s-4.05-16.57-16.46-16.57h-8.73v33.83Z"/>
      <path class="cls-1" d="M446.77,171.03h-22.32v14.39h19.14v4.86h-19.14v14.58h22.32v4.86h-27.37v-43.61h27.37v4.92Z"/>
      <path class="cls-1" d="M490.86,201.5v-35.39h5.05v43.61h-5.49l-24.76-35.45v35.45h-5.05v-43.61h5.49l24.76,35.39Z"/>
      <path class="cls-1" d="M586.72,171.03h-22.32v14.39h19.14v4.86h-19.14v14.58h22.32v4.86h-27.37v-43.61h27.37v4.92Z"/>
      <path class="cls-1" d="M252.6,0v121.5h122.4V0h-122.4ZM297.15,116.55v-54h33.3v54h-33.3ZM370.05,116.55h-34.65v-58.95h-43.2v58.95h-34.65V4.95h112.5v111.6Z"/>
      <path class="cls-1" d="M15.12,210.78c7.58,0,14.36-4.17,14.36-13.08s-6.78-10.61-13.06-12.13c-.09-.02-.18-.04-.26-.07-5.24-1.3-10.06-2.49-10.06-8.08,0-4.3,3.36-7.08,7.77-7.08,3.92,0,7.52,1.96,9.2,5.12l4.66-2.59c-2.24-4.68-7.21-7.71-13.37-7.71-8.08,0-13.37,4.86-13.37,12.7,0,8.91,6.9,10.68,13.05,12.26.08.02.15.04.23.06,5.26,1.3,10.03,2.49,10.03,8.03,0,4.93-4.04,7.46-9.01,7.46-4.44,0-8.92-2.04-10.52-5.94l-4.77,2.49c2.5,5.61,8.78,8.57,15.1,8.57h.02Z"/>
      <path class="cls-1" d="M321.5,210.78c7.58,0,14.36-4.17,14.36-13.08s-6.78-10.61-13.06-12.13c-.09-.02-.18-.04-.26-.07-5.24-1.3-10.06-2.49-10.06-8.08,0-4.3,3.36-7.08,7.77-7.08,3.92,0,7.52,1.96,9.2,5.12l4.66-2.59c-2.24-4.68-7.21-7.71-13.37-7.71-8.08,0-13.37,4.86-13.37,12.7,0,8.91,6.9,10.68,13.05,12.26.08.02.15.04.23.06,5.26,1.3,10.03,2.49,10.03,8.03,0,4.93-4.04,7.46-9.01,7.46-4.44,0-8.92-2.04-10.52-5.94l-4.77,2.49c2.5,5.61,8.78,8.57,15.1,8.57h.02Z"/>
      <path class="cls-1" d="M613.18,210.78c7.58,0,14.36-4.17,14.36-13.08s-6.78-10.61-13.06-12.13c-.09-.02-.18-.04-.26-.07-5.24-1.3-10.06-2.49-10.06-8.08,0-4.3,3.36-7.08,7.77-7.08,3.92,0,7.52,1.96,9.2,5.12l4.66-2.59c-2.24-4.68-7.21-7.71-13.37-7.71-8.08,0-13.37,4.86-13.37,12.7,0,8.91,6.9,10.68,13.05,12.26.08.02.15.04.23.06,5.26,1.3,10.03,2.49,10.03,8.03,0,4.93-4.04,7.46-9.01,7.46-4.44,0-8.92-2.04-10.52-5.94l-4.77,2.49c2.5,5.61,8.78,8.57,15.1,8.57h.02Z"/>
      <path class="cls-1" d="M84.77,183.87c-.07-.38-.15-.76-.23-1.13-.13-.56-.28-1.11-.45-1.66-.23-.73-.49-1.44-.78-2.13-.22-.52-.46-1.03-.71-1.53-.43-.83-.9-1.64-1.42-2.41-.31-.46-.64-.91-.99-1.35-1.49-1.9-3.28-3.56-5.28-4.91-.62-.42-1.25-.8-1.91-1.16-3.29-1.79-7.05-2.8-11.05-2.8h-.6c-.8.02-1.58.08-2.35.18-.77.1-1.54.23-2.28.41-.37.09-.75.18-1.11.29-.18.05-.37.11-.55.16-.36.11-.72.23-1.08.36-1.24.46-2.44,1.01-3.57,1.67-.16.09-.32.19-.48.28-6.7,4.07-11.17,11.43-11.17,19.84,0,5.46,1.89,10.48,5.05,14.44.13.16.26.32.39.48.19.23.39.45.59.68.42.46.85.9,1.3,1.32,3.73,3.5,8.62,5.78,14.03,6.21.22.02.44.03.67.04.39.02.77.03,1.16.03s.73,0,1.09-.03h.09c.11,0,.22,0,.33-.02.08,0,.16-.01.25-.02.32-.02.65-.06.97-.1.07,0,.13-.02.2-.02.12-.02.24-.03.36-.05.06,0,.13-.02.19-.03.15-.02.3-.05.45-.07.04,0,.08,0,.12-.02.15-.03.3-.05.44-.08.04,0,.08-.01.11-.02.17-.04.34-.07.51-.11.01,0,.03,0,.04,0,.12-.03.23-.05.35-.08.08-.02.17-.04.25-.06.08-.02.16-.04.25-.07.09-.02.19-.05.28-.08.12-.03.24-.07.36-.11.06-.02.12-.03.17-.05.12-.04.25-.08.37-.12.05-.02.11-.03.16-.05.12-.04.24-.08.36-.13.06-.02.11-.04.17-.06.12-.05.24-.09.37-.14.06-.02.11-.04.17-.07.09-.03.18-.07.26-.11.09-.04.19-.07.28-.11.09-.04.18-.08.27-.11l.21-.09c.11-.05.21-.1.32-.15.07-.03.15-.07.22-.1.08-.04.15-.07.22-.11.09-.04.18-.09.27-.13.09-.05.18-.09.27-.14.07-.04.13-.07.2-.11.13-.07.26-.14.39-.21.02-.01.04-.02.06-.03.13-.07.26-.15.39-.23.04-.02.07-.04.11-.07.11-.07.22-.14.34-.21.05-.03.11-.07.16-.1.08-.05.16-.1.24-.16.08-.05.16-.1.23-.15.11-.08.22-.15.33-.23.03-.02.06-.04.09-.06.09-.07.19-.13.28-.2.07-.05.15-.11.22-.16.06-.05.12-.09.18-.14.09-.07.17-.13.26-.2.07-.06.15-.12.22-.17.06-.05.13-.1.19-.15.08-.07.17-.14.25-.21.06-.05.12-.11.19-.16.07-.06.14-.12.21-.18.07-.06.14-.12.2-.18.08-.07.16-.14.24-.22.05-.05.1-.1.16-.15.08-.07.16-.15.23-.22.06-.06.13-.12.19-.19l.17-.17c.07-.07.14-.14.2-.21.06-.07.13-.13.19-.2.07-.08.14-.15.22-.23.06-.06.11-.12.17-.18.07-.07.13-.15.19-.22.06-.07.12-.13.17-.2.06-.07.13-.15.19-.22.06-.08.13-.15.19-.23.05-.06.1-.12.15-.18.06-.08.12-.15.18-.23.05-.07.1-.13.15-.2.07-.09.13-.17.19-.26.04-.06.09-.12.13-.18.06-.08.12-.17.18-.25.06-.08.11-.16.17-.24.05-.07.1-.14.15-.22.05-.07.09-.14.14-.21.06-.1.13-.2.19-.3.03-.05.07-.11.1-.16.06-.1.12-.2.18-.29.04-.06.07-.12.11-.19.06-.1.11-.19.17-.29.06-.11.12-.21.18-.32.03-.05.05-.1.08-.15.04-.07.08-.15.12-.22.05-.1.11-.2.16-.3.05-.1.1-.21.15-.31.03-.05.05-.11.08-.16.04-.09.08-.17.12-.26.04-.08.08-.17.12-.26.03-.07.06-.14.09-.21.05-.11.09-.21.14-.32.03-.08.07-.16.1-.24.03-.09.07-.17.1-.26.03-.09.07-.18.1-.26.03-.09.07-.18.1-.27.04-.11.08-.22.12-.33.02-.06.04-.12.06-.19.02-.07.05-.15.07-.22.04-.11.08-.23.11-.35.03-.11.07-.22.1-.33.02-.06.03-.12.05-.18.03-.1.06-.21.08-.31.02-.09.05-.17.07-.26.03-.1.05-.21.08-.31.02-.07.03-.14.05-.2.03-.15.07-.29.1-.44,0-.05.02-.09.03-.14.02-.09.04-.19.05-.28.05-.28.1-.57.15-.86.11-.71.18-1.43.22-2.16.03-.45.04-.9.04-1.35,0-.4-.01-.8-.03-1.19-.05-.99-.16-1.96-.33-2.91v.04ZM79.65,188.43c-.02.62-.06,1.22-.14,1.82-.03.23-.06.45-.1.67-.04.27-.1.53-.15.79-.02.08-.04.16-.05.24-.05.21-.1.41-.15.62-.09.35-.2.7-.32,1.04-.07.22-.15.44-.24.66-2.55,6.66-9,11.4-16.55,11.4h-.46c-.28,0-.56-.02-.83-.04-4.18-.3-7.96-2.06-10.83-4.76-.14-.13-.27-.26-.41-.4-.19-.19-.38-.39-.56-.59-.24-.27-.48-.55-.71-.83-.47-.59-.91-1.2-1.3-1.85-.12-.2-.24-.4-.35-.6-.37-.65-.69-1.33-.98-2.03-.09-.21-.17-.43-.25-.65-.16-.45-.3-.91-.43-1.37-.06-.21-.11-.43-.16-.65-.05-.22-.09-.43-.13-.65-.17-.92-.28-1.87-.3-2.83v-.92c.1-3.95,1.49-7.57,3.78-10.47l.54-.66c.93-1.07,1.98-2.03,3.14-2.85.46-.33.94-.64,1.44-.92.62-.36,1.26-.68,1.92-.96.5-.21,1.01-.4,1.52-.56,1.69-.54,3.49-.83,5.36-.83h.46c.44,0,.87.04,1.29.08h.04c1.29.13,2.54.4,3.74.79.03.01.06.02.09.03.24.08.47.16.7.25.16.06.33.13.49.2.25.1.49.21.73.33,5.67,2.67,9.7,8.27,10.14,14.84.03.39.04.79.04,1.19v.46h-.02Z"/>
      <path class="cls-1" d="M125.28,185.47h-23.75v-19.36h-5.09v44h5.09v-19.68h23.75v19.68h5.09v-44h-5.09v19.36Z"/>
      <path class="cls-1" d="M187.61,182.74c-.04-.19-.09-.37-.14-.56-.1-.37-.2-.74-.31-1.1-.06-.18-.12-.36-.18-.54-.12-.36-.25-.71-.39-1.07-.28-.7-.59-1.39-.93-2.05-.6-1.17-1.29-2.28-2.07-3.32-2.12-2.83-4.86-5.16-8.03-6.78-.19-.1-.38-.19-.58-.29-3.02-1.44-6.41-2.25-9.98-2.25h-.6c-.4,0-.79.03-1.18.06-.98.08-1.95.21-2.89.4-.38.08-.75.16-1.12.26-.56.14-1.1.31-1.64.49-.36.12-.72.25-1.07.39-8.6,3.39-14.69,11.78-14.69,21.59s5.75,17.71,13.96,21.28c.28.12.57.24.86.35.44.17.89.33,1.35.48.44.14.88.27,1.33.38,1.82.46,3.73.71,5.7.71.36,0,.72,0,1.08-.03h.1c.08,0,.17,0,.25,0,.11,0,.22-.01.33-.02.32-.02.65-.06.97-.1.07,0,.14-.02.2-.02.12-.02.24-.03.36-.05.06,0,.13-.02.19-.03.15-.02.3-.05.45-.07.04,0,.08,0,.12-.02.35-.06.69-.13,1.03-.21.03,0,.06,0,.09-.02.11-.02.23-.05.34-.08.08-.02.17-.04.25-.06.09-.02.17-.05.26-.07.09-.02.18-.05.27-.07.12-.03.24-.07.35-.1.06-.02.12-.04.19-.06.14-.04.28-.09.42-.14.03,0,.06-.02.09-.03.13-.04.26-.09.39-.14.05-.02.1-.04.15-.05.14-.05.28-.1.41-.16.04-.02.08-.03.12-.05.1-.04.19-.08.28-.11.09-.04.18-.07.26-.11.11-.05.22-.09.32-.14.04-.02.09-.04.13-.06.12-.05.23-.11.35-.16.07-.03.14-.06.21-.1.09-.04.18-.09.27-.13.07-.04.15-.07.23-.11.1-.05.2-.1.29-.15.07-.03.13-.07.2-.1.1-.06.21-.11.31-.17.05-.03.1-.05.15-.08.11-.07.23-.13.34-.2.05-.03.1-.06.15-.09.11-.07.22-.13.33-.2.05-.03.11-.07.16-.1.09-.06.19-.12.28-.18.06-.04.12-.08.17-.11.1-.07.2-.13.3-.2.06-.04.11-.08.17-.12.09-.06.18-.12.26-.19.06-.05.13-.09.19-.14.08-.06.15-.11.23-.17.08-.06.15-.12.23-.18.06-.05.13-.1.19-.15.08-.06.16-.13.24-.19s.15-.13.23-.19c.06-.05.12-.1.18-.15.1-.08.2-.17.29-.25.04-.03.07-.07.11-.1.09-.08.18-.16.26-.24.05-.05.1-.09.15-.14.08-.07.16-.15.23-.22.06-.06.12-.11.17-.17.07-.07.15-.15.22-.22.07-.07.13-.13.2-.2.05-.06.11-.11.16-.17.07-.07.14-.14.2-.22.06-.07.13-.14.19-.21.05-.05.1-.11.15-.16.08-.09.15-.17.22-.26.06-.07.12-.14.17-.21.05-.05.09-.11.14-.16.08-.1.16-.2.24-.29.05-.06.09-.12.14-.18.05-.07.1-.13.15-.2.07-.09.14-.18.2-.27.04-.06.08-.11.12-.17.06-.08.12-.17.18-.25.05-.07.1-.14.15-.21.07-.09.13-.19.19-.29.02-.03.05-.07.07-.1.08-.12.15-.24.23-.36.03-.05.07-.11.1-.16.06-.1.12-.2.18-.29.05-.09.1-.17.15-.26.04-.07.08-.14.12-.21.06-.11.12-.21.18-.32.03-.05.05-.1.08-.15.05-.1.1-.19.15-.29.03-.07.07-.13.1-.2.05-.09.09-.19.14-.28.04-.08.08-.16.11-.23.04-.09.08-.17.12-.26.04-.09.09-.18.13-.28.05-.11.1-.22.15-.34.02-.04.03-.08.05-.12.06-.13.11-.27.16-.4.02-.04.03-.08.05-.12.04-.11.08-.22.12-.32.03-.08.06-.16.09-.24s.06-.17.09-.25c.03-.09.06-.18.09-.27.04-.12.08-.24.12-.36.02-.05.03-.1.05-.16.04-.14.09-.29.13-.43.01-.04.02-.08.03-.12.09-.32.17-.65.25-.98,0-.04.02-.08.03-.11.03-.15.07-.29.1-.44,0-.05.02-.09.03-.14.07-.36.14-.71.19-1.08v-.06c.02-.12.04-.25.05-.38.03-.26.07-.51.09-.77.03-.34.06-.68.08-1.02,0-.26.03-.51.03-.77v-.58c0-1.8-.2-3.55-.59-5.24l.06.02ZM182.72,188.43l-.02.45c0,.08,0,.16-.02.24-.02.37-.06.74-.1,1.11-.04.35-.1.69-.17,1.04-.1.52-.22,1.02-.36,1.52-.06.2-.11.39-.18.58-2.29,7.14-8.98,12.32-16.87,12.32h-.46c-.28,0-.55-.02-.83-.04-3.86-.28-7.38-1.8-10.16-4.16-.16-.13-.31-.27-.46-.4-.21-.2-.42-.4-.63-.6-.16-.16-.31-.32-.46-.48-.41-.45-.81-.92-1.17-1.41-.2-.27-.4-.55-.59-.84-1.36-2.05-2.31-4.41-2.72-6.94-.05-.34-.1-.68-.14-1.02-.06-.59-.09-1.2-.09-1.81,0-.76.05-1.52.14-2.25.06-.44.13-.88.22-1.31.03-.14.06-.29.09-.43.07-.29.14-.57.22-.85.12-.42.25-.83.4-1.24.1-.27.21-.54.32-.8.06-.13.11-.26.17-.4.24-.52.5-1.03.78-1.53.43-.74.91-1.45,1.43-2.12.18-.22.36-.44.54-.66.28-.32.57-.63.87-.93.2-.2.41-.4.61-.59.95-.86,1.98-1.62,3.09-2.26.49-.29,1-.55,1.53-.78.13-.06.26-.12.39-.17.27-.11.53-.22.8-.32,1.9-.7,3.95-1.08,6.09-1.08h.46c1.63.05,3.21.31,4.7.77.15.05.3.09.45.14.24.08.47.16.7.25.16.06.33.13.49.2.23.1.46.2.68.3,6.04,2.83,10.23,8.96,10.23,16.05v.46h.03Z"/>
      <path class="cls-1" d="M528.21,205.29c-7.79,0-15.09-5.42-15.09-17.32v-.11c0-11.9,7.3-17.32,15.09-17.32,5.74,0,10.98,2.93,12.91,8.16l4.93-1.99c-2.49-7.22-9.98-11.21-17.71-11.21v-.02c-10.42,0-20.4,7.17-20.4,22.31v.25c0,15.14,9.98,22.31,20.39,22.31v-.02c7.74,0,15.23-3.99,17.72-11.21l-4.93-1.99c-1.93,5.23-7.17,8.16-12.91,8.16Z"/>
      <path class="cls-1" d="M304.53,272.43l.03-.02c-3.71,0-6.03-2.77-6.03-7.07v-.05c0-4.3,2.32-7.07,6.03-7.07l-.03-.02c2.51,0,4.43,1.3,5.08,3.24l3.89-1.45c-1.14-3.46-4.5-5.83-8.89-5.83-6.04,0-10.15,4.51-10.15,11.12v.07c0,6.61,4.11,11.12,10.15,11.12,4.39,0,7.75-2.37,8.89-5.83l-3.89-1.45c-.65,1.94-2.56,3.24-5.08,3.24Z"/>
      <path class="cls-1" d="M270.1,263.48l-.12-.03c-2.56-.63-4-1.08-4-2.95,0-1.48,1.12-2.47,2.78-2.47,1.52,0,2.9.76,3.52,1.93l.36.68,3.42-1.9-.31-.64c-1.16-2.43-3.76-3.94-6.78-3.94-4.16,0-6.85,2.57-6.85,6.54,0,4.65,3.77,5.62,6.52,6.32l.1.03c2.55.63,4,1.08,4,2.93,0,1.95-1.73,2.64-3.35,2.64s-3.46-.69-4.09-2.24l-.31-.77-3.54,1.85.29.65c1.18,2.64,4.15,4.35,7.57,4.35h.21c3.57-.08,7.1-2.17,7.1-6.72s-3.77-5.6-6.53-6.26Z"/>
      <path class="cls-1" d="M404.39,263.48l-.12-.03c-2.56-.63-4-1.08-4-2.95,0-1.48,1.12-2.47,2.78-2.47,1.52,0,2.9.76,3.52,1.93l.36.68,3.42-1.9-.31-.64c-1.16-2.43-3.76-3.94-6.78-3.94-4.16,0-6.85,2.57-6.85,6.54,0,4.65,3.77,5.62,6.52,6.32l.1.03c2.55.63,4,1.08,4,2.93,0,1.95-1.73,2.64-3.35,2.64s-3.46-.69-4.09-2.24l-.31-.77-3.54,1.85.29.65c1.18,2.64,4.15,4.35,7.57,4.35h.21c3.57-.08,7.1-2.17,7.1-6.72s-3.77-5.6-6.53-6.26Z"/>
    </g>
  </g>
</svg>